# xmcd
#
# Track frame offsets: 
#        150
#        17567
#        39685
#        56155
#        73395
#        87080
#        102757
#        118280
#        136877
#        152660
#
# Disc length: 2327 seconds
#
# Revision: 2
# Processed by: cddbd v1.5PL3 Copyright (c) Steve Scherf et al.
# Submitted via: ExactAudioCopy v0.90b4
#
DISCID=8809150a
DTITLE=Lorrie Morgan - War Paint
DYEAR=1900
DGENRE=Country
TTITLE0=My Night To Howl
TTITLE1=War Paint
TTITLE2=If You Came Back From Heaven
TTITLE3=Heart Over Mind
TTITLE4=1-800 Used To Be
TTITLE5=A Good Year For The Roses
TTITLE6=The Hard Part Was Easy
TTITLE7=Don't Touch Me
TTITLE8=Exit 99
TTITLE9=Evening Up The Odds
EXTD=BNA 66379-2\nBMG  D 103092\n(c) 1994
EXTT0=
EXTT1=
EXTT2=
EXTT3=
EXTT4=
EXTT5=
EXTT6=
EXTT7=
EXTT8=
EXTT9=
PLAYORDER=
